<?xml version="1.0" encoding="utf-8"?>
<!-- Generator: Adobe Illustrator 25.2.1, SVG Export Plug-In . SVG Version: 6.00 Build 0)  -->
<svg version="1.1" id="Layer_1" xmlns="http://www.w3.org/2000/svg" xmlns:xlink="http://www.w3.org/1999/xlink" x="0px" y="0px"
	 viewBox="0 0 384 78" style="enable-background:new 0 0 384 78;" xml:space="preserve">
<style type="text/css">
	.st0{fill:#163c91;}
	.st1{fill:#163c91;}
</style>
<g>
	<path class="st0" d="M7.66,67.77L31.7,10.98h0.53l23.89,56.79h-9.17L29.52,23.6l5.71-3.83l-19.61,48H7.66z M22.31,47.34h19.46
		l2.63,6.84H19.9L22.31,47.34z"/>
	<path class="st0" d="M70.31,68.45c-2.3,0-4.52-0.43-6.65-1.28c-2.13-0.85-3.92-2.05-5.37-3.61l3.23-4.43
		c1.35,1.3,2.73,2.28,4.13,2.93c1.4,0.65,2.75,0.98,4.06,0.98c0.9,0,1.78-0.12,2.63-0.38c0.85-0.25,1.51-0.64,1.99-1.16
		c0.48-0.53,0.71-1.26,0.71-2.22c0-1.05-0.35-1.88-1.05-2.48c-0.7-0.6-1.62-1.09-2.74-1.46c-1.13-0.38-2.29-0.76-3.49-1.16
		c-2.7-0.85-4.72-2.07-6.05-3.64c-1.33-1.58-1.99-3.44-1.99-5.6c0-1.65,0.42-3.23,1.28-4.73c0.85-1.5,2.12-2.72,3.79-3.64
		c1.68-0.93,3.77-1.39,6.27-1.39c2.25,0,4.27,0.26,6.05,0.79c1.78,0.53,3.42,1.39,4.92,2.59l-3,4.73c-0.9-0.9-1.97-1.58-3.19-2.03
		c-1.23-0.45-2.34-0.72-3.34-0.83c-0.9-0.05-1.72,0.08-2.44,0.38c-0.73,0.3-1.33,0.71-1.8,1.24c-0.48,0.53-0.71,1.14-0.71,1.84
		c-0.05,1.05,0.3,1.88,1.05,2.48c0.75,0.6,1.69,1.08,2.82,1.43s2.26,0.73,3.42,1.13c1.5,0.5,2.85,1.13,4.06,1.88
		c1.2,0.75,2.15,1.69,2.85,2.82c0.7,1.13,1.05,2.54,1.05,4.24c0,1.85-0.46,3.59-1.39,5.22c-0.93,1.63-2.3,2.93-4.13,3.91
		C75.43,67.96,73.11,68.45,70.31,68.45z"/>
	<path class="st0" d="M87.89,67.77V9.4h7.59v34.03l-0.15-1.35c1.1-2,2.73-3.68,4.88-5.03c2.15-1.35,4.71-2.03,7.66-2.03
		c2.95,0,5.4,0.88,7.32,2.63c1.93,1.75,2.92,4.03,2.97,6.84v23.29h-7.74V47.26c-0.05-1.7-0.51-3.07-1.39-4.09
		c-0.88-1.03-2.29-1.54-4.25-1.54c-1.75,0-3.33,0.51-4.73,1.54c-1.4,1.03-2.49,2.43-3.27,4.21s-1.16,3.82-1.16,6.12v14.27H87.89z"/>
	<path class="st0" d="M128.53,22.47h7.74v13.97h8.41v6.01h-8.41v25.32h-7.74V42.46h-5.56v-6.01h5.56V22.47z"/>
	<path class="st0" d="M145.8,51.77c0-3.16,0.75-6.01,2.25-8.56c1.5-2.55,3.58-4.57,6.24-6.05c2.65-1.48,5.71-2.22,9.16-2.22
		c3.46,0,6.47,0.74,9.05,2.22c2.58,1.48,4.58,3.49,6.01,6.05c1.43,2.55,2.14,5.41,2.14,8.56c0,3.15-0.71,6.01-2.14,8.56
		c-1.43,2.55-3.44,4.57-6.05,6.05c-2.6,1.48-5.66,2.22-9.16,2.22c-3.36,0-6.35-0.69-8.98-2.07c-2.63-1.38-4.71-3.33-6.23-5.86
		C146.57,58.14,145.8,55.18,145.8,51.77z M153.62,51.77c0,2,0.42,3.78,1.28,5.33c0.85,1.55,2,2.79,3.46,3.72
		c1.45,0.93,3.05,1.39,4.81,1.39c1.9,0,3.59-0.46,5.07-1.39c1.48-0.93,2.62-2.18,3.42-3.76c0.8-1.58,1.2-3.34,1.2-5.3
		c0-1.9-0.4-3.64-1.2-5.22c-0.8-1.58-1.93-2.84-3.38-3.79c-1.45-0.95-3.15-1.43-5.11-1.43c-1.8,0-3.43,0.48-4.88,1.43
		c-1.45,0.95-2.59,2.22-3.42,3.79C154.03,48.13,153.62,49.87,153.62,51.77z"/>
	<path class="st0" d="M192.23,36.37l0.68,7.14l-0.23-1.05c1-2.25,2.62-4.06,4.85-5.41c2.23-1.35,4.82-2.03,7.77-2.03
		c2.95,0,5.4,0.88,7.32,2.63c1.93,1.75,2.92,4.03,2.97,6.84v23.29h-7.74V47.26c-0.05-1.7-0.51-3.07-1.39-4.09
		c-0.88-1.03-2.29-1.54-4.25-1.54c-1.75,0-3.33,0.5-4.73,1.5c-1.4,1-2.49,2.39-3.27,4.17c-0.78,1.78-1.16,3.84-1.16,6.2v14.27h-7.74
		v-31.4H192.23z"/>
	<path class="st0" d="M250.07,13.31h32.6v7.66h-24.64v16.3h21.56v7.74h-21.56v22.76h-7.96V13.31z"/>
	<path class="st0" d="M282.44,51.77c0-3.16,0.75-6.01,2.25-8.56c1.5-2.55,3.58-4.57,6.24-6.05c2.65-1.48,5.71-2.22,9.16-2.22
		c3.46,0,6.47,0.74,9.05,2.22c2.58,1.48,4.58,3.49,6.01,6.05c1.43,2.55,2.14,5.41,2.14,8.56c0,3.15-0.71,6.01-2.14,8.56
		c-1.43,2.55-3.44,4.57-6.05,6.05c-2.6,1.48-5.66,2.22-9.16,2.22c-3.36,0-6.35-0.69-8.98-2.07c-2.63-1.38-4.71-3.33-6.23-5.86
		C283.2,58.14,282.44,55.18,282.44,51.77z M290.25,51.77c0,2,0.42,3.78,1.28,5.33c0.85,1.55,2,2.79,3.46,3.72
		c1.45,0.93,3.05,1.39,4.81,1.39c1.9,0,3.59-0.46,5.07-1.39c1.48-0.93,2.62-2.18,3.42-3.76c0.8-1.58,1.2-3.34,1.2-5.3
		c0-1.9-0.4-3.64-1.2-5.22c-0.8-1.58-1.93-2.84-3.38-3.79c-1.45-0.95-3.15-1.43-5.11-1.43c-1.8,0-3.43,0.48-4.88,1.43
		c-1.45,0.95-2.59,2.22-3.42,3.79C290.67,48.13,290.25,49.87,290.25,51.77z"/>
	<path class="st0" d="M327.29,36.37l0.75,9.01l-0.23-1.28c0.8-1.9,1.98-3.53,3.53-4.88c1.55-1.35,3.17-2.39,4.84-3.12
		c1.68-0.73,3.09-1.09,4.24-1.09l-0.45,7.66c-2.35-0.15-4.42,0.3-6.2,1.35c-1.78,1.05-3.17,2.45-4.17,4.21
		c-1,1.75-1.5,3.61-1.5,5.56v13.97h-7.66v-31.4H327.29z"/>
	<path class="st0" d="M355.98,68.6c-2.96,0-5.61-0.7-7.96-2.1c-2.35-1.4-4.21-3.39-5.56-5.97c-1.35-2.58-2.03-5.55-2.03-8.9
		c0-3.5,0.72-6.5,2.18-8.98c1.45-2.48,3.43-4.38,5.93-5.71c2.5-1.33,5.31-1.99,8.41-1.99c2.35,0,4.62,0.49,6.8,1.46
		s3.87,2.37,5.07,4.17l-0.22,2.63V9.4h7.74v58.37h-7.81v-7.44l0.83,1.95c-1.55,1.8-3.46,3.3-5.71,4.51
		C361.39,68,358.84,68.6,355.98,68.6z M358.39,61.99c1.7,0,3.25-0.3,4.66-0.9c1.4-0.6,2.57-1.46,3.49-2.59
		c0.93-1.13,1.59-2.44,1.99-3.94v-6.31c-0.4-1.4-1.08-2.63-2.03-3.68c-0.95-1.05-2.13-1.89-3.53-2.52c-1.4-0.63-2.93-0.94-4.58-0.94
		c-1.85,0-3.54,0.45-5.07,1.35c-1.53,0.9-2.74,2.12-3.64,3.64c-0.9,1.53-1.35,3.32-1.35,5.37c0,1.95,0.45,3.73,1.35,5.33
		c0.9,1.6,2.13,2.87,3.68,3.79C354.9,61.52,356.58,61.99,358.39,61.99z"/>
</g>
</svg>
